# xmcd
#
# Track frame offsets:
#	150
#	18955
#	34477
#	62875
#	76115
#	92672
#	108787
#	128870
#	146780
#	163252
#	180405
#	196162
#	216927
#	232682
#	250317
#	266240
#	286825
#	301200
#
# Disc length: 4362 seconds
#
# Revision: 0
# Processed by: cddbd v1.5.2PL0 Copyright (c) Steve Scherf et al.
# Submitted via: EasyCDDAExtractor 2010.6.0.0
#
DISCID=f7110812
DTITLE=Various Artist - Eso Hity 7
DYEAR=1900
DGENRE=
TTITLE0=Hanson - I Will Come To You
TTITLE1=Aaron Carter - Crush On You
TTITLE2=Nana - He's Coming
TTITLE3=Chaozz - Věci
TTITLE4=DJ Dado - Coming Back
TTITLE5=Scooter - Leave In Silince
TTITLE6=Barbara - To Čo Je Vzácné
TTITLE7=All Saints - I Know Where It's At
TTITLE8=T-Boyz - Step By Step
TTITLE9='N Sync - For The Girl Who Has Everything
TTITLE10=Boyzone - Picture Of You
TTITLE11=Ginuwine - When Doves Cry
TTITLE12=Jam and Spoon - Kaleidoscope Skies
TTITLE13=Rammstein - Du Hast
TTITLE14=Da Hool - Meet Her At Thee Loveparade
TTITLE15=Texas - Put Your Arms Around Me
TTITLE16=Moby - James Bond Theme
TTITLE17=Depeche Mode - Home
EXTD=
EXTT0=
EXTT1=
EXTT2=
EXTT3=
EXTT4=
EXTT5=
EXTT6=
EXTT7=
EXTT8=
EXTT9=
EXTT10=
EXTT11=
EXTT12=
EXTT13=
EXTT14=
EXTT15=
EXTT16=
EXTT17=
PLAYORDER=
